<mxfile host="app.diagrams.net" agent="agent" version="20.2.8"><diagram name="Exam Results"><mxGraphModel dx="1280" dy="720" page="1" pageScale="1" pageWidth="1920" pageHeight="1080"><root><mxCell id="0"/><mxCell id="1" parent="0"/><mxCell id="title" value="Exam Results" style="shape=rectangle;whiteSpace=wrap;html=1;fontSize=18;fontStyle=1;" vertex="1"><mxGeometry x="20" y="20" width="1880" height="60" as="geometry"/></mxCell><mxCell id="summary" value="Summary" style="shape=rectangle;whiteSpace=wrap;html=1;fillColor=#f5f5f5;" vertex="1"><mxGeometry x="20" y="100" width="1880" height="140" as="geometry"/></mxCell><mxCell id="cards" value="Report Cards Grid" style="shape=rectangle;whiteSpace=wrap;html=1;" vertex="1"><mxGeometry x="20" y="260" width="1880" height="720" as="geometry"/></mxCell></root></mxGraphModel></diagram></mxfile>
